# xmcd
#
# Track frame offsets:
#	150
#	18961
#	41480
#	58935
#	77667
#	92851
#	109949
#	125929
#	142573
#	156909
#
# Disc length: 2321 seconds
#
# Revision: 2
# Processed by: cddbd v1.5.2PL0 Copyright (c) Steve Scherf et al.
# Submitted via: audiograbber 1.83.01
#
DISCID=81090f0a
DTITLE=Mary Chapin Carpenter - Super Hits
DYEAR=1994
DGENRE=Country
TTITLE0=Downtown Train
TTITLE1=Just Because
TTITLE2=This Shirt
TTITLE3=Never Had It So Good
TTITLE4=Passionate Kisses
TTITLE5=The Bug
TTITLE6=Why Walk When You Can Fly
TTITLE7=Shut Up And Kiss Me
TTITLE8=A Road Is Just A Road
TTITLE9=Simple Life
EXTD=
EXTT0=
EXTT1=
EXTT2=
EXTT3=
EXTT4=
EXTT5=
EXTT6=
EXTT7=
EXTT8=
EXTT9=
PLAYORDER=
